<svg xmlns="http://www.w3.org/2000/svg" xmlns:xlink="http://www.w3.org/1999/xlink" width="233.634" height="84.73" viewBox="0 0 233.634 84.73">
  <defs>
    <clipPath id="clip-path">
      <rect id="Rectangle_46" data-name="Rectangle 46" width="103.151" height="84.73" transform="translate(0)" fill="#fff"/>
    </clipPath>
  </defs>
  <g id="Group_64" data-name="Group 64" transform="translate(-150 -13020.867)" opacity="0.5">
    <g id="icon-fsc" transform="translate(150 13020.867)">
      <path id="Path_47" data-name="Path 47" d="M41.365,0C24.387,0,18.389,26.312,12.815,47.513c-2.027-2.027-8.236-8.236-8.236-8.193a2.37,2.37,0,0,0-3.548.042,2.511,2.511,0,0,0,0,3.505c.042.042,8.4,8.362,11.319,11.234a2.544,2.544,0,0,0,3.125.549,3.378,3.378,0,0,0,1.394-2.027c9.883-44.345,18.752-47.64,24.5-47.64A10.326,10.326,0,0,1,51.8,15.669c7.222,0,11.741,9.46,5.913,15.289,4.815,2.323,6.969,5.195,6.969,8.785A7.452,7.452,0,0,1,57.2,47.048c-4.392,0-6.631-2.83-10.052-2.83a2.466,2.466,0,0,0-2.492,2.492v8.954h-6.5V46.753a2.415,2.415,0,0,0-2.872-2.45l-8.658,1.056a2.62,2.62,0,0,0-2.027,2.45A2.564,2.564,0,0,0,27.259,50.3c.211,0,.465,0,.422-.042l5.491-.718v8.869a2.536,2.536,0,0,0,2.407,2.2h11.53A2.524,2.524,0,0,0,49.6,58.114V50.047a16.077,16.077,0,0,0,7.475,2.027,12.484,12.484,0,0,0,12.586-12.5,12.706,12.706,0,0,0-5.195-10.094,13.88,13.88,0,0,0-8.236-17.992A15.24,15.24,0,0,0,41.365,0Z" transform="translate(-0.318)" fill="#545454"/>
      <path id="Path_48" data-name="Path 48" d="M41.365,0C24.387,0,18.389,26.312,12.815,47.513c-2.027-2.027-8.236-8.236-8.236-8.193a2.37,2.37,0,0,0-3.548.042,2.511,2.511,0,0,0,0,3.505c.042.042,8.4,8.362,11.319,11.234a2.544,2.544,0,0,0,3.125.549,3.378,3.378,0,0,0,1.394-2.027c9.883-44.345,18.752-47.64,24.5-47.64A10.326,10.326,0,0,1,51.8,15.669c7.222,0,11.741,9.46,5.913,15.289,4.815,2.323,6.969,5.195,6.969,8.785A7.452,7.452,0,0,1,57.2,47.048c-4.392,0-6.631-2.83-10.052-2.83a2.466,2.466,0,0,0-2.492,2.492v8.954h-6.5V46.753a2.415,2.415,0,0,0-2.872-2.45l-8.658,1.056a2.62,2.62,0,0,0-2.027,2.45A2.564,2.564,0,0,0,27.259,50.3c.211,0,.465,0,.422-.042l5.491-.718v8.869a2.536,2.536,0,0,0,2.407,2.2h11.53A2.524,2.524,0,0,0,49.6,58.114V50.047a16.077,16.077,0,0,0,7.475,2.027,12.484,12.484,0,0,0,12.586-12.5,12.706,12.706,0,0,0-5.195-10.094,13.88,13.88,0,0,0-8.236-17.992A15.24,15.24,0,0,0,41.365,0Z" transform="translate(-0.318)" fill="#545454"/>
      <path id="Path_49" data-name="Path 49" d="M19.966,42c0,2.069,2.323,3.336,6.166,5.153,3.041,1.436,4.772,2.914,4.772,4.139,0,1.943-2.112,2.661-4.1,2.661-3.041,0-4.857-1.225-5.87-3.928l-.084-.211H20.6c-.549,0-.971.042-1.183.3a1.2,1.2,0,0,0-.084,1.014l.676,2.787c.169.676.422.8,1.521,1.014a32.829,32.829,0,0,0,5.026.507C32.383,55.43,35,53.065,35,50.7c0-1.689-1.689-3.336-5.364-5.153l-1.647-.8c-2.492-1.183-4.012-1.9-4.012-3.167,0-1.225,1.563-2.069,3.8-2.069,2.914,0,3.717,1.647,4.055,3.041l.084.253h.3c.634,0,1.056-.042,1.309-.3a.712.712,0,0,0,.169-.591l-.211-2.407c-.084-.76-.676-.887-1.478-1.056a20.733,20.733,0,0,0-3.928-.38C22.964,38.03,19.966,39.508,19.966,42Z" transform="translate(13.859 28.488)" fill="#545454"/>
      <path id="Path_50" data-name="Path 50" d="M29.279,46.9c0,4.223,3.674,8.489,10.685,8.489a13.6,13.6,0,0,0,7.011-1.6l.38-.211-.634-.718.042.042a.551.551,0,0,0-.507-.253l-.338.127a11.389,11.389,0,0,1-5.11,1.014,7.218,7.218,0,0,1-7.518-7.56c0-4.941,4.223-6.673,7.856-6.673,2.618,0,3.97.929,4.266,2.83l.042.3h.338c.3,0,1.14,0,1.14-.633V39.17c0-.718-.8-.8-1.14-.845l-.338-.042a22.445,22.445,0,0,0-3.759-.211C34.474,38.029,29.279,41.746,29.279,46.9Z" transform="translate(21.355 28.489)" fill="#545454"/>
      <path id="Path_51" data-name="Path 51" d="M19.219,38.186l-6.335.042L8.66,38.144H8.027a.611.611,0,0,0-.634.676.665.665,0,0,0,.718.76c2.534,0,2.661.211,2.661,1.183l.042.633.042,2.576v5.575c0,.929-.042,2.407-.084,3.59,0,.338-.042.676-2.281.676-.634,0-1.014.127-1.014.76a.573.573,0,0,0,.591.676H8.2c.253,0,.971-.042,4.519-.042,3.759,0,4.519.042,4.773.042h.127c.507,0,.929-.042.929-.676,0-.676-.549-.76-1.52-.76-2.239,0-2.281-.338-2.281-.676-.042-1.1-.084-2.576-.084-3.59V47.52h1.9c2.914,0,3.21.084,3.632,2.323a.764.764,0,0,0,.845.549c.676,0,.76-.38.76-.549L21.753,49c-.042-.465-.084-1.056-.084-1.9V43.677c0-.507-.633-.507-.971-.507-.549,0-.676.338-1.013,1.985-.169.634-1.352.971-3.294.971H14.7V41.1c0-1.351.254-1.394.549-1.394,1.1-.042,3.8-.127,4.6-.127a3.776,3.776,0,0,1,1.943.465A21.634,21.634,0,0,1,24.414,41.9c.422.338.676.549,1.014.549.211,0,.8,0,.8-.507a1.626,1.626,0,0,0-.253-.676c-.211-.507-.634-1.352-1.14-2.661-.127-.422-.633-.422-1.52-.422Z" transform="translate(4.977 28.543)" fill="#545454"/>
      <path id="Path_52" data-name="Path 52" d="M38.42,4.622h.887a1.817,1.817,0,0,0,.845-.169.6.6,0,0,0,.254-.507.7.7,0,0,0-.211-.507,1.636,1.636,0,0,0-.929-.169H38.42ZM41.5,7.156h-.887a8.034,8.034,0,0,0-1.1-1.732,1.038,1.038,0,0,0-.634-.211h-.422v1.9h-.718V2.637h1.563a3.918,3.918,0,0,1,1.1.127,1.065,1.065,0,0,1,.633.422,1.147,1.147,0,0,1,.254.718,1.341,1.341,0,0,1-.338.845,1.391,1.391,0,0,1-.971.422,2.756,2.756,0,0,1,1.056,1.14ZM39.518,8.339a3.533,3.533,0,0,0,3.548-3.505A3.354,3.354,0,0,0,42.01,2.342a3.506,3.506,0,0,0-6,2.492,3.462,3.462,0,0,0,3.506,3.505Zm0-7.687a4.084,4.084,0,0,1,2.956,1.225A3.987,3.987,0,0,1,43.7,4.833,4.084,4.084,0,0,1,42.474,7.79a4.232,4.232,0,0,1-5.955,0,4.015,4.015,0,0,1-1.225-3,4.083,4.083,0,0,1,1.225-2.956A4.211,4.211,0,0,1,39.518.652Z" transform="translate(25.856 0.488)" fill="#545454"/>
      <path id="Path_53" data-name="Path 53" d="M39.608,9.377a4.147,4.147,0,0,1-3.125-1.309,4.147,4.147,0,0,1-1.309-3.125,4.147,4.147,0,0,1,1.309-3.125A4.378,4.378,0,0,1,39.608.507a4.279,4.279,0,0,1,3.125,1.309,4.147,4.147,0,0,1,1.309,3.125,4.147,4.147,0,0,1-1.309,3.125A4.307,4.307,0,0,1,39.608,9.377Zm0-8.4a3.764,3.764,0,0,0-2.83,1.183A3.738,3.738,0,0,0,35.6,4.942a3.829,3.829,0,0,0,1.183,2.83,3.925,3.925,0,0,0,2.83,1.183,3.829,3.829,0,0,0,2.83-1.183,3.925,3.925,0,0,0,1.183-2.83,3.829,3.829,0,0,0-1.183-2.83A3.956,3.956,0,0,0,39.608.972Z" transform="translate(25.765 0.38)" fill="#545454"/>
      <path id="Path_54" data-name="Path 54" d="M39.319,8.393a3.775,3.775,0,0,1-2.661-1.1,3.633,3.633,0,0,1-1.1-2.661,3.607,3.607,0,0,1,1.1-2.618,3.633,3.633,0,0,1,2.661-1.1,3.774,3.774,0,0,1,2.661,1.1,3.607,3.607,0,0,1,1.1,2.618,3.749,3.749,0,0,1-3.759,3.759Zm0-7.053A3.225,3.225,0,0,0,37,2.312a3.156,3.156,0,0,0-.971,2.323A3.225,3.225,0,0,0,37,6.957a3.225,3.225,0,0,0,2.323.971,3.156,3.156,0,0,0,2.323-.971,3.156,3.156,0,0,0,.971-2.323,3.226,3.226,0,0,0-.971-2.323A3.226,3.226,0,0,0,39.319,1.34Z" transform="translate(26.055 0.687)" fill="#545454"/>
      <path id="Path_55" data-name="Path 55" d="M40.979,6.608H39.543l-.084-.127C38.7,5.088,38.445,4.835,38.4,4.835a.9.9,0,0,0-.507-.127h-.211v1.9H36.5V1.667h1.816a3.843,3.843,0,0,1,1.14.127,1.036,1.036,0,0,1,.76.465,1.572,1.572,0,0,1,.3.845,1.338,1.338,0,0,1-.38.971,1.431,1.431,0,0,1-.591.38,7.244,7.244,0,0,1,.718.929Zm-1.14-.422h.38l-.338-.549c-.549-.887-.845-1.014-.929-1.014l-.127-.042A11.118,11.118,0,0,1,39.839,6.186Zm-2.83,0h.3v-1.9h.676a1.1,1.1,0,0,1,.76.253.041.041,0,0,1,.042.042V4.243l.211-.042a1.1,1.1,0,0,0,.8-.338.9.9,0,0,0,.3-.676.889.889,0,0,0-.211-.549.986.986,0,0,0-.507-.422,3.191,3.191,0,0,0-1.014-.084H37.009Z" transform="translate(26.76 1.247)" fill="#545454"/>
      <path id="Path_56" data-name="Path 56" d="M38.078,3.821h-1.14V2.005h1.056a2.085,2.085,0,0,1,1.056.211.845.845,0,0,1,0,1.351A1.278,1.278,0,0,1,38.078,3.821ZM37.4,3.4h.676a1.592,1.592,0,0,0,.718-.127.416.416,0,0,0,.127-.338A.48.48,0,0,0,38.8,2.6c-.042-.042-.211-.127-.8-.127H37.36V3.4Z" transform="translate(27.085 1.501)" fill="#545454"/>
    </g>
    <g id="icon-iso" transform="translate(280.483 13020.867)" clip-path="url(#clip-path)">
      <path id="Path_57" data-name="Path 57" d="M78.529,37.332a41.966,41.966,0,0,1-8.383,8.932c-.122.121-.486.121-.486,0-1.337-.845-2.795-1.569-4.131-2.414a49.632,49.632,0,0,0,4.738-6.518h-1.7a35.388,35.388,0,0,1-4.617,5.914c-2.43-.966-4.617-1.811-7.047-2.535l-.243-.241c.364-1.086,1.093-2.052,1.336-3.138H56.538l-1.458,2.9A69.836,69.836,0,0,0,45,38.9c-.122-.483,0-1.207-.122-1.569H43.417c-.122.6.122,1.086-.122,1.69a52.253,52.253,0,0,0-9.841,1.207L32,37.332a6.915,6.915,0,0,0-1.579,0l1.336,3.138-.122.121a71.957,71.957,0,0,0-7.168,2.535h-.122a42.923,42.923,0,0,1-4.252-5.311c-.243-.966-1.336-.362-1.944-.483a50.812,50.812,0,0,0,4.738,6.638c-1.458.845-2.916,1.81-4.5,2.535a41.31,41.31,0,0,1-8.626-9.173,8.017,8.017,0,0,0-1.7,0,42.586,42.586,0,0,0,16.4,14.725s.122.121,0,.121A44.291,44.291,0,0,0,38.192,56.4,42.611,42.611,0,0,0,80.109,37.211,8.777,8.777,0,0,0,78.529,37.332ZM55.809,42.16l.122-.121a31.157,31.157,0,0,1,6.682,2.293,30.723,30.723,0,0,1-6.075,5.19c-1.215.724-2.551,1.569-3.766,2.173l-2.308-1.086.122-.362A51.2,51.2,0,0,0,55.809,42.16ZM45.118,40.591a37.663,37.663,0,0,1,9.112,1.086V41.8a62.706,62.706,0,0,1-5.467,8.449,9.532,9.532,0,0,1-2.673-.362l-.972-.121C45,46.626,45,43.729,45.118,40.591Zm-10.57.966a52.5,52.5,0,0,1,8.869-.966v9.173c-1.094.241-2.43.241-3.523.483a54.4,54.4,0,0,1-5.71-8.449Zm-8.748,2.9a31.463,31.463,0,0,1,6.682-2.414h.243a78.893,78.893,0,0,0,5.467,8.569,21.426,21.426,0,0,1-2.43,1.086A36.253,36.253,0,0,1,25.8,44.453Zm7.047,9.294a38.7,38.7,0,0,1-12.757-6.035v-.121A33.958,33.958,0,0,1,24.1,45.3a52.4,52.4,0,0,0,9.841,7.6A8.56,8.56,0,0,1,32.846,53.747Zm20.169.724a41.091,41.091,0,0,1-17.982-.121c-.122-.241.243-.362.486-.483,5.1-3.259,13-3.259,17.981.241C53.622,54.471,53.136,54.35,53.015,54.471ZM58.239,52.9l-2.551.845a4.361,4.361,0,0,1-1.215-.845l.122-.121a47.68,47.68,0,0,0,9.6-7.483,28.846,28.846,0,0,1,4.252,2.293A39.015,39.015,0,0,1,58.239,52.9Z" transform="translate(6.032 27.845)" fill="#545454"/>
      <path id="Path_58" data-name="Path 58" d="M38.136,42.729c-5.1,1.448-10.692.362-14.337-3.621a13.259,13.259,0,0,1-1.093-1.69H15.294c-.122,4.345-.122,9.414,0,13.759h8.14l.122-2.655c.972.483,1.822.966,2.795,1.448,5.71,2.414,13,2.9,18.589,0a11.11,11.11,0,0,0,5.71-11.346c-.608-4.586-4.981-8.811-9.355-9.9L28.052,24.866l-.972-.483a1.381,1.381,0,0,1-.607-1.448c1.093-1.811,3.4-1.207,5.224-1.207,3.766.483,7.776,1.811,9.963,5.311h7.776c.122-4.466,0-8.328-.122-12.794h-7.9c-.122.6.122,1.569-.122,2.173l-2.551-1.328c-5.953-2.535-14.337-2.776-19.8,1.086-3.523,2.655-4.617,7.242-3.645,11.346.729,3.862,4.374,6.759,7.9,8.087,4.86,1.69,9.963,3.017,14.823,4.707.486.241,1.093.724,1.093,1.328C38.986,42.247,38.5,42.488,38.136,42.729Z" transform="translate(11.192 9.895)" fill="#545454"/>
      <path id="Path_59" data-name="Path 59" d="M24.1,41.964c-1.822-.121-3.766,0-5.589-.121V22.894l.122-.121h5.346c0-3.138.122-6.4,0-9.173H.039v9.173c1.822,0,3.645,0,5.346.121v19.07l-5.346.121C-.082,45.1-.082,48,.039,51.017H24.1Z" transform="translate(-0.039 10.177)" fill="#545454"/>
      <path id="Path_60" data-name="Path 60" d="M69.223,16.881c-7.047-4.586-17.86-4.828-25.15-.724a14.9,14.9,0,0,0-7.411,10.259C35.2,33.3,35.569,41.5,40.793,46.572,46.868,52,55.737,53.211,63.634,50.917a11.8,11.8,0,0,0,2.43-.845l.243-.121A17.174,17.174,0,0,0,72.868,45c4.009-5.914,4.252-14.846,1.822-21.6A14.833,14.833,0,0,0,69.223,16.881ZM61.812,38.848a3.97,3.97,0,0,1-2.551,3.138,8.315,8.315,0,0,1-7.168-.483c-1.7-1.207-1.944-3.138-2.065-5.069-.122-3.742-.486-7.725.608-11.1.85-2.052,3.037-2.655,5.1-2.776,2.065,0,4.252.362,5.467,2.052.851,1.207.729,2.9.972,4.345C62.055,32.088,62.3,35.709,61.812,38.848Z" transform="translate(26.881 9.915)" fill="#545454"/>
      <path id="Path_61" data-name="Path 61" d="M9.814,19.389a59.766,59.766,0,0,1,4.374-5.311,29.4,29.4,0,0,1,4.252-3.621c1.458.966,3.037,1.69,4.374,2.535a49.647,49.647,0,0,0-4.738,6.518,3.481,3.481,0,0,0,1.579,0,34.581,34.581,0,0,1,4.617-5.794,69.126,69.126,0,0,0,7.047,2.414l.243.241-1.336,3.138a6.916,6.916,0,0,0,1.579,0,32.324,32.324,0,0,1,1.458-2.9A52.236,52.236,0,0,0,43.1,17.82c.486.362.122,1.207.243,1.69h1.458c.122-.483,0-1.086.122-1.569A49.675,49.675,0,0,0,54.4,16.733h.243L56.1,19.509a3.519,3.519,0,0,0,1.579-.121l-1.336-3.138.122-.121a40.613,40.613,0,0,0,7.29-2.655A56.271,56.271,0,0,1,68.5,19.389a5.979,5.979,0,0,0,1.579-.121,16.635,16.635,0,0,0-2.308-3.38,18.114,18.114,0,0,0-2.43-2.9V12.75L69.1,10.578l.486-.241a40.755,40.755,0,0,1,8.626,9.052c.608,0,1.215.241,1.7,0A43.358,43.358,0,0,0,47.6.2V.318L47.478.2a21.8,21.8,0,0,0-4.86,0H40.553A42.488,42.488,0,0,0,7.992,19.389,4.631,4.631,0,0,0,9.814,19.389Zm22.6-4.828H32.17a57.585,57.585,0,0,1-6.439-2.173l.122-.362A48.136,48.136,0,0,1,35.45,4.9c.851.362,1.579.6,2.43.966l-.122.6A66.443,66.443,0,0,0,32.413,14.561ZM43.226,16.13a17.532,17.532,0,0,1-4.374-.121,32.534,32.534,0,0,1-4.738-.845,43.113,43.113,0,0,1,5.71-8.449l3.523.483C43.347,9.854,43.226,13.112,43.226,16.13Zm1.7,0c-.122-2.9,0-6.035,0-9.052,1.093-.121,2.308-.362,3.4-.483a42.494,42.494,0,0,1,5.589,8.449A37.405,37.405,0,0,1,44.927,16.13ZM62.3,12.388a29.033,29.033,0,0,1-6.682,2.293A78.319,78.319,0,0,0,50.03,6.233c.729-.483,1.7-.724,2.551-1.207a40.527,40.527,0,0,1,9.841,7.242ZM55.375,3.094A38.7,38.7,0,0,1,68.133,9.129l-.122.241-3.766,2.052H64a52.108,52.108,0,0,0-9.72-7.483C54.4,3.577,55.011,3.336,55.375,3.094Zm-2.187-.6C48.45,6.112,40.8,6.353,35.814,3.215c-.243-.241-.851-.362-.851-.724A40.4,40.4,0,0,1,53.188,2.491ZM19.9,9.25A40.028,40.028,0,0,1,31.2,3.457c.122-.121.243-.362.486-.362v.121c.486.121.729-.362,1.093,0a6.736,6.736,0,0,1,.972.724,51.7,51.7,0,0,0-9.72,7.6A12.786,12.786,0,0,1,19.9,9.25Z" transform="translate(5.98 0.044)" fill="#545454"/>
    </g>
  </g>
</svg>
