<svg xmlns="http://www.w3.org/2000/svg" width="51.013" height="51.013" viewBox="0 0 51.013 51.013">
  <g id="Icon_ionic-ios-arrow-dropleft" data-name="Icon ionic-ios-arrow-dropleft" transform="translate(1 1)">
    <path id="Path_42" data-name="Path 42" d="M12.835,10.645a2.283,2.283,0,0,1,3.216,0l11.24,11.275a2.271,2.271,0,0,1,.071,3.134L16.287,36.165a2.27,2.27,0,1,1-3.216-3.2l9.4-9.543-9.649-9.555A2.272,2.272,0,0,1,12.835,10.645Z" transform="translate(6.334 1.089)" stroke="#fff" stroke-width="2"/>
    <path id="Path_43" data-name="Path 43" d="M27.881,3.375A24.506,24.506,0,1,1,3.375,27.881,24.5,24.5,0,0,1,27.881,3.375ZM13.225,42.538A20.728,20.728,0,1,0,42.538,13.225,20.728,20.728,0,1,0,13.225,42.538Z" transform="translate(-3.375 -3.375)" stroke="#fff" stroke-width="2"/>
  </g>
</svg>
