<svg xmlns="http://www.w3.org/2000/svg" width="31.5" height="25.633" viewBox="0 0 31.5 25.633">
  <path id="Icon_ionic-logo-twitter" data-name="Icon ionic-logo-twitter" d="M32.914,7.537A13.066,13.066,0,0,1,29.2,8.559a6.485,6.485,0,0,0,2.844-3.578,12.842,12.842,0,0,1-4.105,1.569A6.461,6.461,0,0,0,16.76,10.968a6.327,6.327,0,0,0,.167,1.475A18.315,18.315,0,0,1,3.6,5.682a6.476,6.476,0,0,0,2.009,8.638,6.312,6.312,0,0,1-2.937-.808v.08a6.468,6.468,0,0,0,5.187,6.341,6.505,6.505,0,0,1-1.7.227,6.1,6.1,0,0,1-1.215-.12,6.473,6.473,0,0,0,6.041,4.492,12.957,12.957,0,0,1-8.03,2.77,13.1,13.1,0,0,1-1.542-.093,18.064,18.064,0,0,0,9.893,2.924c11.9,0,18.4-9.859,18.4-18.41,0-.28-.007-.561-.02-.834A13.156,13.156,0,0,0,32.914,7.537Z" transform="translate(-1.413 -4.5)" fill="#0073b5"/>
</svg>
